<svg width="84" height="28" viewBox="0 0 84 28" fill="none" xmlns="http://www.w3.org/2000/svg">
<path d="M40.7653 5.68925C42.8471 5.68925 44.6533 5.95038 46.1841 6.47263C47.7148 6.99489 48.8883 7.70515 49.7047 8.60343C50.5211 9.50171 50.9293 10.494 50.9293 11.5803V12.3637H45.5105C45.5105 11.7161 45.133 11.1834 44.3778 10.7656C43.643 10.3269 42.5715 10.1075 41.1633 10.1075C39.857 10.1075 38.857 10.3687 38.163 10.8909C37.4895 11.3923 37.1527 12.0085 37.1527 12.7397C37.1527 13.3873 37.3568 13.8782 37.765 14.2125C38.1936 14.5467 38.7141 14.7138 39.3264 14.7138H42.5103V18.5681H38.6529C38.0201 18.5681 37.4997 18.7665 37.0915 19.1634C36.7037 19.5395 36.5098 20.0931 36.5098 20.8242C36.5098 21.6807 36.8568 22.3596 37.5507 22.861C38.2651 23.3415 39.3876 23.5817 40.9183 23.5817C43.9798 23.5817 45.5105 22.6521 45.5105 20.7929V14.7138H56.459V18.5681H50.9906V20.6675C50.9906 23.0072 50.1742 24.8142 48.5414 26.0885C46.929 27.3629 44.3982 28 40.9489 28C37.3977 28 34.7342 27.4151 32.9585 26.2452C31.1829 25.0754 30.2951 23.5295 30.2951 21.6076C30.2951 20.3542 30.6114 19.2783 31.2441 18.3801C31.8972 17.4609 32.8055 16.8133 33.9688 16.4373V16.3119C33.0912 15.9777 32.3564 15.4032 31.7646 14.5885C31.1931 13.7738 30.9074 12.865 30.9074 11.8623C30.9074 10.7342 31.2747 9.70017 32.0095 8.76011C32.7646 7.82005 33.8872 7.07845 35.3771 6.5353C36.867 5.97126 38.6631 5.68925 40.7653 5.68925Z" fill="#FF5F00"/>
<path d="M20.2246 27.8884L19.1074 23.9565H9.82337L8.7062 27.8884H0L9.66927 0H19.5697L29.239 27.8884H20.2246ZM11.5954 17.714H17.3354L14.5617 7.78282H14.4076L11.5954 17.714Z" fill="#0067C7"/>
<path d="M76.0643 0C77.3997 0 78.6196 0.29726 79.724 0.891782C80.854 1.45928 81.74 2.26999 82.382 3.32391C83.0498 4.37784 83.3836 5.55337 83.3836 6.8505C83.3836 10.2825 81.9069 12.4444 78.9535 13.3362V13.4983C82.3178 14.309 84 16.6331 84 20.4704C84 21.9297 83.6533 23.2269 82.9599 24.3619C82.2921 25.4698 81.3676 26.3346 80.1862 26.9561C79.0049 27.5777 77.7079 27.8884 76.2954 27.8884H58.4207V0H76.0643ZM66.9343 10.8635H72.7898C73.3548 10.8635 73.8171 10.6608 74.1766 10.2555C74.5619 9.82311 74.7545 9.29615 74.7545 8.6746V8.26925C74.7545 7.67473 74.5619 7.17479 74.1766 6.76943C73.7914 6.33705 73.3291 6.12087 72.7898 6.12087H66.9343V10.8635ZM66.9343 21.4028H73.4062C73.9712 21.4028 74.4335 21.2001 74.793 20.7947C75.1782 20.3623 75.3708 19.8354 75.3708 19.2138V18.8085C75.3708 18.1869 75.1782 17.6735 74.793 17.2681C74.4335 16.8358 73.9712 16.6196 73.4062 16.6196H66.9343V21.4028Z" fill="#0067C7"/>
</svg>
